<?xml version="1.0" encoding="utf-8"?>
<!-- Svg Vector Icons : http://www.onlinewebfonts.com/icon -->
<!DOCTYPE svg PUBLIC "-//W3C//DTD SVG 1.1//EN" "http://www.w3.org/Graphics/SVG/1.1/DTD/svg11.dtd">
<svg version="1.1" xmlns="http://www.w3.org/2000/svg" xmlns:xlink="http://www.w3.org/1999/xlink" x="0px" y="0px" viewBox="0 0 1000 1000" enable-background="new 0 0 1000 1000" xml:space="preserve">
<metadata> Svg Vector Icons : http://www.onlinewebfonts.com/icon </metadata>
<g><g transform="translate(0.000000,511.000000) scale(0.100000,-0.100000)"><path d="M3366.7,4336c-88.9-39.3-140.6-84.8-179.9-163.3c-28.9-53.8-33.1-212.9-31-1190.9c0-1219.8-2.1-1188.8,111.7-1294.3c86.8-82.7,142.7-88.9,721.6-88.9h556.2v-165.4v-165.4h-144.7c-117.9,0-153-8.3-186.1-41.4c-49.6-49.6-51.7-99.2-8.3-161.3l31-45.5H5000h762.9l31,45.5c43.4,62,41.4,111.6-8.3,161.3c-33.1,33.1-68.2,41.4-186.1,41.4h-144.7v165.4v163.3l587.2,6.2c560.3,6.2,591.3,8.3,647.1,49.6c31,22.7,78.6,74.4,105.4,111.6l45.5,68.2v1151.6v1151.6l-47.5,70.3c-24.8,39.3-86.8,91-138.5,117.8l-91,45.5H5000C3656.1,4367,3428.7,4362.9,3366.7,4336z M6323.2,2973.5v-858H5000H3676.8v858v858H5000h1323.2V2973.5z"/><path d="M1495.6,432.5c-60-26.9-142.7-91-190.2-144.7c-144.7-163.3-153-219.2-146.8-827l6.2-529.3l68.2-66.2c60-60,80.6-68.2,181.9-68.2c105.4,0,119.9,6.2,186.1,76.5l70.3,78.6v481.7c0,347.3,6.2,487.9,24.8,506.5c18.6,18.6,386.6,24.8,1530,24.8h1505.1v-475.5c0-533.4,10.3-589.2,128.2-661.6c86.8-51.7,194.3-51.7,281.2,0c117.9,72.4,128.2,128.2,128.2,661.6v475.5h1505.2c1143.3,0,1511.4-6.2,1530-24.8c18.6-18.6,24.8-159.2,24.8-506.5v-481.7l70.3-78.6c66.1-70.3,80.6-76.5,186.1-76.5c101.3,0,122,8.3,181.9,68.2l68.2,66.2l6.2,529.3c6.2,607.9-2.1,663.7-146.8,827c-47.5,53.8-130.3,117.8-190.2,144.7l-103.4,49.6H5000H1598.9L1495.6,432.5z"/><path d="M306.8-1732.1c-28.9-12.4-74.4-41.4-99.2-66.2C100-1897.5,100-1901.7,100-2712.2c0-855.9,0-858,150.9-957.2c82.7-53.8,91-55.8,473.5-62l388.7-8.3v-68.2c0-66.2,0-68.2-115.8-76.5c-82.7-6.2-126.1-20.7-144.7-47.5c-41.4-55.8-35.1-128.2,12.4-175.7c39.3-39.3,68.2-41.3,543.7-41.3c558.2,0,593.4,8.3,593.4,126.1c0,93-64.1,142.7-186.1,142.7h-103.4v70.3v70.3l388.7,8.3c341.1,6.2,394.9,10.3,456.9,47.5c91,53.8,144.7,128.2,167.5,229.5c26.9,113.7,24.8,1385.2,0,1480.3c-28.9,99.2-113.7,200.6-200.6,235.7c-53.7,22.8-275,29-1116.5,26.9C761.6-1711.5,337.8-1719.7,306.8-1732.1z M2208.9-2712.2V-3198h-796h-796v485.9v485.9h796h796V-2712.2z"/><path d="M3852.5-1757c-53.8-28.9-99.2-76.5-128.2-138.5c-47.5-88.9-47.5-105.4-47.5-820.8c0-802.2,2.1-820.8,122-922.1c97.2-80.6,186.1-97.2,556.2-97.2h334.9v-72.4c0-72.4,0-72.4-91-72.4c-113.7,0-181.9-51.7-181.9-134.4c0-37.2,16.5-74.4,45.5-97.2c41.4-33.1,93-37.2,541.7-37.2h494.1l49.6,51.7c64.1,64.1,64.1,101.3,0,165.4c-37.2,39.3-72.4,51.7-144.7,51.7c-93,0-93,0-93,72.4v72.4h337c184,0,370.1,10.3,413.5,22.7c105.5,28.9,215,130.3,241.9,221.2c12.4,45.5,20.7,370.1,20.7,789.8c0,700.9,0,717.4-45.5,806.3c-31,62-76.5,109.6-130.2,138.5c-82.7,47.6-82.7,47.6-1147.5,47.6S3935.2-1709.4,3852.5-1757z M5798-2716.3l2.1-481.7h-802.2h-804.3v471.4c0,260.5,6.2,479.7,14.5,485.9c8.3,8.3,368,12.4,800.1,10.3l787.7-6.2L5798-2716.3z"/><path d="M7481-1732.1c-29-12.4-74.4-41.4-99.2-66.2c-107.5-99.2-107.5-103.4-107.5-930.4c0-769.1,0-773.3,47.6-841.5c93-140.6,144.7-155.1,578.9-161.3l386.6-8.3v-70.3v-70.3H8184c-117.9,0-186.1-49.6-186.1-134.4c0-28.9,18.6-70.3,41.3-93c39.3-39.3,68.2-41.3,547.9-41.3s508.6,2.1,547.9,41.3c22.7,22.7,41.3,64.1,41.3,93c0,84.8-68.2,134.4-186.1,134.4h-103.4v70.3v70.3l388.7,8.3c432.1,6.2,483.8,20.7,576.8,161.3c47.5,68.2,47.5,72.4,47.5,847.7s0,779.5-45.5,847.7c-26.9,37.2-74.4,88.9-105.4,111.7c-57.9,43.4-78.6,43.4-1137.1,47.5C7923.5-1713.5,7514.1-1719.7,7481-1732.1z M9383.1-2712.2V-3198h-796h-796v485.9v485.9h796h796V-2712.2z"/></g></g>
</svg>